<mxfile host="app.diagrams.net" modified="2021-03-15T09:36:29.910Z" agent="5.0 (Windows NT 10.0; Win64; x64) AppleWebKit/537.36 (KHTML, like Gecko) Chrome/89.0.4389.82 Safari/537.36" etag="Zu89XQUg8o5AN7XgsGpc" version="14.4.8" type="github">
  <diagram id="r64N6xbzxEkhV7eX7kDJ" name="Page-1">
    <mxGraphModel dx="677" dy="336" grid="1" gridSize="10" guides="1" tooltips="1" connect="1" arrows="1" fold="1" page="1" pageScale="1" pageWidth="827" pageHeight="1169" math="0" shadow="0">
      <root>
        <mxCell id="0" />
        <mxCell id="1" parent="0" />
        <mxCell id="gUrkqawSaK6fL2AW06mD-2" style="edgeStyle=orthogonalEdgeStyle;rounded=0;orthogonalLoop=1;jettySize=auto;html=1;entryX=0.5;entryY=0;entryDx=0;entryDy=0;" edge="1" parent="1" source="gUrkqawSaK6fL2AW06mD-1" target="gUrkqawSaK6fL2AW06mD-3">
          <mxGeometry relative="1" as="geometry">
            <mxPoint x="110" y="180" as="targetPoint" />
          </mxGeometry>
        </mxCell>
        <mxCell id="gUrkqawSaK6fL2AW06mD-1" value="&lt;font style=&quot;font-size: 12px&quot;&gt;采样&lt;/font&gt;" style="rounded=0;whiteSpace=wrap;html=1;" vertex="1" parent="1">
          <mxGeometry x="70" y="120" width="60" height="30" as="geometry" />
        </mxCell>
        <mxCell id="gUrkqawSaK6fL2AW06mD-5" value="" style="edgeStyle=orthogonalEdgeStyle;rounded=0;orthogonalLoop=1;jettySize=auto;html=1;" edge="1" parent="1" source="gUrkqawSaK6fL2AW06mD-3" target="gUrkqawSaK6fL2AW06mD-4">
          <mxGeometry relative="1" as="geometry" />
        </mxCell>
        <mxCell id="gUrkqawSaK6fL2AW06mD-3" value="利用样本计算&lt;br&gt;参数模型" style="rounded=0;whiteSpace=wrap;html=1;" vertex="1" parent="1">
          <mxGeometry x="50" y="180" width="100" height="40" as="geometry" />
        </mxCell>
        <mxCell id="gUrkqawSaK6fL2AW06mD-9" style="edgeStyle=orthogonalEdgeStyle;rounded=0;orthogonalLoop=1;jettySize=auto;html=1;exitX=1;exitY=0.5;exitDx=0;exitDy=0;entryX=0;entryY=0.5;entryDx=0;entryDy=0;" edge="1" parent="1" source="gUrkqawSaK6fL2AW06mD-4" target="gUrkqawSaK6fL2AW06mD-8">
          <mxGeometry relative="1" as="geometry" />
        </mxCell>
        <mxCell id="gUrkqawSaK6fL2AW06mD-4" value="模型检验" style="rounded=0;whiteSpace=wrap;html=1;" vertex="1" parent="1">
          <mxGeometry x="178" y="182.5" width="60" height="35" as="geometry" />
        </mxCell>
        <mxCell id="gUrkqawSaK6fL2AW06mD-10" style="edgeStyle=orthogonalEdgeStyle;rounded=0;orthogonalLoop=1;jettySize=auto;html=1;entryX=0;entryY=0.5;entryDx=0;entryDy=0;" edge="1" parent="1" source="gUrkqawSaK6fL2AW06mD-8" target="gUrkqawSaK6fL2AW06mD-11">
          <mxGeometry relative="1" as="geometry">
            <mxPoint x="380" y="200" as="targetPoint" />
          </mxGeometry>
        </mxCell>
        <mxCell id="gUrkqawSaK6fL2AW06mD-17" style="edgeStyle=orthogonalEdgeStyle;rounded=0;orthogonalLoop=1;jettySize=auto;html=1;exitX=0.5;exitY=1;exitDx=0;exitDy=0;entryX=0.5;entryY=0;entryDx=0;entryDy=0;" edge="1" parent="1" source="gUrkqawSaK6fL2AW06mD-8" target="gUrkqawSaK6fL2AW06mD-15">
          <mxGeometry relative="1" as="geometry" />
        </mxCell>
        <mxCell id="gUrkqawSaK6fL2AW06mD-8" value="损失更小" style="rhombus;whiteSpace=wrap;html=1;" vertex="1" parent="1">
          <mxGeometry x="267" y="175" width="80" height="50" as="geometry" />
        </mxCell>
        <mxCell id="gUrkqawSaK6fL2AW06mD-18" style="edgeStyle=orthogonalEdgeStyle;rounded=0;orthogonalLoop=1;jettySize=auto;html=1;entryX=1;entryY=0.5;entryDx=0;entryDy=0;" edge="1" parent="1" source="gUrkqawSaK6fL2AW06mD-11" target="gUrkqawSaK6fL2AW06mD-15">
          <mxGeometry relative="1" as="geometry">
            <Array as="points">
              <mxPoint x="414" y="270" />
              <mxPoint x="414" y="302" />
            </Array>
          </mxGeometry>
        </mxCell>
        <mxCell id="gUrkqawSaK6fL2AW06mD-11" value="更新局内点" style="rounded=0;whiteSpace=wrap;html=1;" vertex="1" parent="1">
          <mxGeometry x="378" y="186.25" width="71" height="27.5" as="geometry" />
        </mxCell>
        <mxCell id="gUrkqawSaK6fL2AW06mD-22" style="edgeStyle=orthogonalEdgeStyle;rounded=0;orthogonalLoop=1;jettySize=auto;html=1;entryX=1;entryY=0.5;entryDx=0;entryDy=0;" edge="1" parent="1" source="gUrkqawSaK6fL2AW06mD-15" target="gUrkqawSaK6fL2AW06mD-21">
          <mxGeometry relative="1" as="geometry" />
        </mxCell>
        <mxCell id="gUrkqawSaK6fL2AW06mD-15" value="重采样" style="rounded=0;whiteSpace=wrap;html=1;" vertex="1" parent="1">
          <mxGeometry x="280.25" y="273" width="53.5" height="20" as="geometry" />
        </mxCell>
        <mxCell id="gUrkqawSaK6fL2AW06mD-23" style="edgeStyle=orthogonalEdgeStyle;rounded=0;orthogonalLoop=1;jettySize=auto;html=1;entryX=0.5;entryY=1;entryDx=0;entryDy=0;" edge="1" parent="1" source="gUrkqawSaK6fL2AW06mD-21" target="gUrkqawSaK6fL2AW06mD-3">
          <mxGeometry relative="1" as="geometry" />
        </mxCell>
        <mxCell id="gUrkqawSaK6fL2AW06mD-28" style="edgeStyle=orthogonalEdgeStyle;rounded=0;orthogonalLoop=1;jettySize=auto;html=1;exitX=0.5;exitY=1;exitDx=0;exitDy=0;entryX=0.5;entryY=0;entryDx=0;entryDy=0;" edge="1" parent="1" source="gUrkqawSaK6fL2AW06mD-21" target="gUrkqawSaK6fL2AW06mD-26">
          <mxGeometry relative="1" as="geometry" />
        </mxCell>
        <mxCell id="gUrkqawSaK6fL2AW06mD-21" value="达到最大迭代次数" style="rhombus;whiteSpace=wrap;html=1;" vertex="1" parent="1">
          <mxGeometry x="40" y="249" width="120" height="68" as="geometry" />
        </mxCell>
        <mxCell id="gUrkqawSaK6fL2AW06mD-26" value="保存当前最优模型" style="rounded=0;whiteSpace=wrap;html=1;" vertex="1" parent="1">
          <mxGeometry x="57.5" y="341" width="82.5" height="30" as="geometry" />
        </mxCell>
      </root>
    </mxGraphModel>
  </diagram>
</mxfile>
